<?xml version="1.0" standalone="no"?>
<!DOCTYPE svg PUBLIC "-//W3C//DTD SVG 20010904//EN"
 "http://www.w3.org/TR/2001/REC-SVG-20010904/DTD/svg10.dtd">
<svg version="1.0" xmlns="http://www.w3.org/2000/svg"
 width="451.000000pt" height="451.000000pt" viewBox="0 0 451.000000 451.000000"
 preserveAspectRatio="xMidYMid meet">
<metadata>
Created by potrace 1.14, written by Peter Selinger 2001-2017
</metadata>
<g transform="translate(0.000000,451.000000) scale(0.100000,-0.100000)"
fill="#000000" stroke="none">
<path d="M1299 3733 c-1 -13 -1 -2916 0 -2935 1 -17 25 -18 361 -18 l360 0 0
1480 0 1480 -360 0 c-198 0 -360 -3 -361 -7z"/>
<path d="M2499 3728 c-1 -15 -1 -2929 0 -2940 1 -5 163 -8 361 -8 l360 0 0
1480 0 1480 -360 0 c-281 0 -360 -3 -361 -12z"/>
</g>
</svg>
